<svg width="0" height="0" class="hidden">
  <symbol xmlns="http://www.w3.org/2000/svg" viewBox="0 0 20 19" id="twitch">
    <path fill-rule="evenodd" clip-rule="evenodd" d="M19.9602 13.7551V9.68369V0.810059H2.93894L0.811279 3.10676V15.2167H6.13043V18.9749H8.47085L11.024 16.2606H17.407L19.9602 13.7551ZM7.40694 13.5464H4.00268C3.76864 13.5464 3.57715 13.3585 3.57715 13.1288V2.89805C3.57715 2.66838 3.76864 2.48047 4.00268 2.48047H17.6197C17.8537 2.48047 18.0452 2.66838 18.0452 2.89805V10.8321C18.0452 10.947 18.0027 11.0513 17.9229 11.1296L15.5825 13.4263C15.5027 13.5046 15.391 13.5464 15.2793 13.5464H11.3697L8.07183 15.77C8.00268 15.817 7.91757 15.8431 7.83247 15.8431C7.76332 15.8431 7.69949 15.8274 7.63566 15.7961C7.49204 15.7231 7.40694 15.5821 7.40694 15.4255V13.5464Z"></path>
    <path d="M13.79 9.89262V5.7168H12.0878V9.89262H13.79ZM9.53465 9.89262V5.7168H7.83252V9.89262H9.53465Z"></path>
  </symbol>
  <symbol xmlns="http://www.w3.org/2000/svg" viewBox="0 0 26 19" id="youtube">
    <path d="M20.61 0.313477H5.98961C3.12627 0.313477 0.799805 2.68074 0.799805 5.59429V13.0271C0.799805 15.9462 3.12627 18.308 5.98961 18.308H20.6046C23.4733 18.308 25.7944 15.9407 25.7944 13.0271V5.59429C25.7998 2.68074 23.4733 0.313477 20.61 0.313477ZM17.0959 9.67767L10.2575 12.994C10.0731 13.0823 9.86705 12.9499 9.86705 12.7402V5.89778C9.86705 5.68809 10.084 5.55566 10.2629 5.64947L17.1013 9.17552C17.3074 9.28037 17.302 9.57834 17.0959 9.67767Z"></path>
  </symbol>
   <symbol xmlns="http://www.w3.org/2000/svg" viewBox="0 0 22 17" id="twitter">
    <path fill-rule="evenodd" clip-rule="evenodd" d="M21.2138 2.55955C20.4408 2.88155 19.6098 3.09655 18.7388 3.19455C19.6288 2.69455 20.3118 1.90255 20.6338 0.960551C19.7998 1.42255 18.8778 1.75855 17.8958 1.94055C17.1108 1.15455 15.9898 0.664551 14.7508 0.664551C12.3708 0.664551 10.4398 2.47355 10.4398 4.70355C10.4398 5.02055 10.4778 5.32955 10.5518 5.62455C6.96981 5.45555 3.79381 3.84755 1.66781 1.40455C1.29681 2.00155 1.08481 2.69455 1.08481 3.43555C1.08481 4.83555 1.84581 6.07355 3.00181 6.79755C2.29581 6.77555 1.63181 6.59455 1.04981 6.29155C1.04981 6.30955 1.04981 6.32455 1.04981 6.34355C1.04981 8.30055 2.53481 9.93255 4.50681 10.3036C4.14581 10.3956 3.76381 10.4436 3.37181 10.4436C3.09381 10.4436 2.82381 10.4195 2.56081 10.3736C3.10881 11.9766 4.70081 13.1456 6.58681 13.1786C5.11181 14.2616 3.25381 14.9066 1.23381 14.9066C0.885811 14.9066 0.542811 14.8876 0.205811 14.8506C2.11281 15.9956 4.37881 16.6656 6.81281 16.6656C14.7408 16.6656 19.0758 10.5096 19.0758 5.17255C19.0758 4.99655 19.0708 4.82355 19.0628 4.64955C19.9048 4.07955 20.6358 3.36855 21.2138 2.55955Z"></path>
  </symbol>
  <symbol xmlns="http://www.w3.org/2000/svg" viewBox="0 0 10 20" id="facebook">
    <path fill-rule="evenodd" clip-rule="evenodd" d="M6.65382 19.3025H2.56282V9.80848H0.517822V6.53548H2.56282V4.57148C2.56282 1.90248 3.71782 0.313477 6.99582 0.313477H9.72582V3.58648H8.02082C6.74282 3.58648 6.65882 4.04448 6.65882 4.89848L6.65382 6.53548H9.74582L9.38382 9.80848H6.65382V19.3025Z"></path>
  </symbol>
</svg>