<svg width="19" height="15" viewBox="0 0 19 15" fill="none" xmlns="http://www.w3.org/2000/svg">
<path opacity="0.3" d="M18.3979 2.54413C17.723 2.82977 17.007 3.01729 16.274 3.10048C17.0364 2.66261 17.6229 1.97063 17.8989 1.1449C17.173 1.55658 16.3788 1.84663 15.5507 2.0025C14.8517 1.28911 13.8743 0.885028 12.8517 0.886724C10.8103 0.886724 9.15349 2.46873 9.15349 4.42024C9.15349 4.69754 9.18615 4.9678 9.25009 5.22587C6.17627 5.07826 3.45203 3.672 1.62775 1.53364C1.30922 2.05493 1.12752 2.66261 1.12752 3.3104C1.12752 4.53587 1.78012 5.61768 2.77218 6.25152C2.18482 6.23431 1.61034 6.08273 1.09693 5.80947V5.85454C1.09693 7.56623 2.37177 8.99459 4.06266 9.31991C3.51808 9.46084 2.9471 9.48151 2.39293 9.38036C2.86372 10.7845 4.22986 11.806 5.84738 11.8357C4.58198 12.782 2.98768 13.348 1.25471 13.348C0.960031 13.3477 0.665618 13.3312 0.372925 13.2986C2.00931 14.3009 3.95353 14.8867 6.04172 14.8867C12.8437 14.8867 16.5626 9.50082 16.5626 4.8302C16.5626 4.67743 16.5626 4.52466 16.5511 4.37298C17.2748 3.87259 17.8997 3.25336 18.3968 2.54413H18.3979Z" fill="white"/>
</svg>
